<svg width="110" height="38" viewBox="0 0 110 38" fill="none" xmlns="http://www.w3.org/2000/svg">
<path d="M-5.66199 -27.1467C32.4544 -27.1467 70.5708 -27.1467 109.842 -27.1467C109.842 -19.1663 109.842 -11.1465 109.842 -2.92432C109.256 -3.42493 108.741 -3.98674 108.202 -4.60995C101.16 -12.6777 92.6513 -13.8874 84.4545 -11.5768C84.2564 -11.5217 84.0583 -11.4666 83.8541 -11.4099C73.346 -8.40829 63.314 -1.25055 53.4659 5.44532C45.7853 10.6664 38.0901 15.7145 30.1908 19.8942C29.9781 20.0077 29.7654 20.1212 29.5463 20.2381C25.8836 22.1698 22.1427 23.4263 18.3691 24.532C18.1492 24.5971 17.9293 24.6622 17.7028 24.7292C14.8077 25.5445 11.9091 25.6242 8.98195 25.6501C8.80201 25.6528 8.62208 25.6555 8.4367 25.6582C5.21017 25.6944 2.13428 25.0559 -0.9987 23.7245C-1.25152 23.6197 -1.25152 23.6197 -1.50946 23.5127C-2.78889 22.9709 -4.03766 22.334 -5.27439 21.5506C-5.33834 22.2065 -5.4023 22.8624 -5.46819 23.5382C-5.34578 23.5946 -5.22337 23.6509 -5.09724 23.709C-4.83718 23.8294 -4.83718 23.8294 -4.57187 23.9523C-4.27621 24.0887 -4.27621 24.0887 -3.97457 24.2279C-3.56168 24.4247 -3.15018 24.6303 -2.74062 24.8465C-1.33247 25.5811 0.0737002 26.1239 1.52069 26.5818C1.69227 26.637 1.86385 26.6923 2.04062 26.7493C11.65 29.6763 22.1211 26.2619 31.262 21.1501C31.8153 20.8475 32.3713 20.5616 32.9275 20.2746C33.8646 19.7842 34.7919 19.2564 35.7156 18.6972C35.8369 18.624 35.9583 18.5507 36.0833 18.4753C36.5806 18.1746 37.0778 17.8732 37.5741 17.5678C37.9432 17.3411 38.3132 17.1184 38.6832 16.8959C38.8995 16.7638 39.1159 16.6317 39.3388 16.4956C39.8808 16.2502 39.8808 16.2502 40.4622 16.5815C28.5147 26.7414 15.4085 37.1332 1.81806 37.2C1.43036 37.2032 1.04268 37.2135 0.655026 37.2239C-1.55191 37.2386 -3.41144 36.7037 -5.66199 36.1266C-5.66199 15.2464 -5.66199 -5.63375 -5.66199 -27.1467Z" fill="#478767"/>
<circle cx="15.0575" cy="12.8122" r="8.32128" fill="white"/>
<path d="M23.3788 12.8122C23.3788 14.8991 22.5946 16.91 21.1817 18.4459C19.7687 19.9818 17.8302 20.9308 15.7504 21.1045C13.6707 21.2783 11.6016 20.6642 9.9533 19.3841C8.30504 18.1039 7.198 16.2512 6.85165 14.1931C6.50531 12.135 6.94495 10.022 8.08342 8.27285C9.22189 6.52373 10.976 5.26625 12.9981 4.74974C15.0202 4.23324 17.1625 4.49541 19.0004 5.48428C20.8382 6.47315 22.2374 8.11651 22.9205 10.0886L22.137 10.36C21.5219 8.58442 20.2622 7.10481 18.6075 6.21448C16.9528 5.32415 15.0239 5.0881 13.2033 5.55314C11.3828 6.01818 9.80339 7.15035 8.77837 8.72518C7.75335 10.3 7.35751 12.2025 7.66935 14.0555C7.98118 15.9085 8.97791 17.5766 10.4619 18.7292C11.9459 19.8818 13.8089 20.4347 15.6814 20.2782C17.5539 20.1218 19.2992 19.2674 20.5714 17.8845C21.8436 16.5016 22.5496 14.6912 22.5496 12.8122H23.3788Z" fill="white"/>
<path d="M14.8944 9.87517C14.5355 9.87517 14.2283 9.75545 13.9729 9.51601C13.7175 9.27657 13.5895 8.98839 13.5891 8.65146C13.5887 8.31453 13.7166 8.02654 13.9729 7.78751C14.2291 7.54848 14.5363 7.42855 14.8944 7.42774C15.2525 7.42692 15.5599 7.54685 15.8166 7.78751C16.0733 8.02818 16.201 8.31616 16.1997 8.65146C16.1984 8.98675 16.0707 9.27494 15.8166 9.51601C15.5625 9.75708 15.2551 9.87681 14.8944 9.87517ZM14.8944 18.4412C14.6225 18.4412 14.3914 18.3521 14.2013 18.1738C14.0112 17.9956 13.9159 17.7788 13.9154 17.5234V12.0167C13.9154 11.7617 14.0107 11.5451 14.2013 11.3669C14.3919 11.1886 14.6229 11.0993 14.8944 11.0989C15.1659 11.0985 15.3972 11.1878 15.5882 11.3669C15.7792 11.546 15.8743 11.7626 15.8734 12.0167V17.5234C15.8734 17.7783 15.7783 17.9952 15.5882 18.1738C15.398 18.3525 15.1668 18.4416 14.8944 18.4412Z" fill="#11305C"/>
</svg>
