<svg width="210" height="54" viewBox="0 0 210 54" fill="none" xmlns="http://www.w3.org/2000/svg">
<circle cx="26.7159" cy="27.1486" r="26.7159" fill="white"/>
<path d="M12.5202 33.0502L21.5192 38.1348V11.5038L36.0856 20.0244L25.3296 25.9986L36.0856 35.2049L3.79688 46.2547L19.8932 53.8333L52.6213 38.1348L44.5925 29.0347L41.268 25.9986L54.5485 20.0244L45.2685 13.6897L21.7848 0L12.5202 3.85456V33.0502Z" fill="#478767"/>
<path d="M67.214 44.2866V18.5473H76.7927C78.1778 18.5473 79.4341 18.8353 80.5617 19.4114C81.6893 19.9752 82.578 20.7842 83.2276 21.8383C83.8894 22.8923 84.2204 24.1303 84.2204 25.5521C84.2204 26.1281 84.1407 26.7226 83.9814 27.3354C83.8343 27.9483 83.5769 28.5121 83.2092 29.0269C82.8537 29.5417 82.3635 29.9339 81.7384 30.2035C82.5473 30.3996 83.1969 30.7674 83.6872 31.3067C84.1775 31.8337 84.5513 32.4465 84.8087 33.1452C85.0661 33.8316 85.2377 34.5363 85.3235 35.2595C85.4093 35.9826 85.4522 36.6384 85.4522 37.2267C85.4522 38.5504 85.109 39.7455 84.4226 40.8118C83.7362 41.8782 82.8108 42.7239 81.6464 43.349C80.4943 43.9741 79.2196 44.2866 77.8223 44.2866H67.214ZM72.2884 39.9661H77.2891C77.9633 39.9661 78.5761 39.8068 79.1277 39.4881C79.6792 39.1571 80.1205 38.7098 80.4514 38.146C80.7823 37.5699 80.9478 36.9203 80.9478 36.1971C80.9478 35.5843 80.7823 35.0021 80.4514 34.4505C80.1205 33.899 79.6792 33.4516 79.1277 33.1084C78.5761 32.753 77.9633 32.5752 77.2891 32.5752H72.2884V39.9661ZM72.2884 28.3466H76.2044C77.0134 28.3466 77.7059 28.0831 78.2819 27.5561C78.858 27.029 79.146 26.3488 79.146 25.5153C79.146 24.6573 78.858 24.0077 78.2819 23.5665C77.7059 23.113 77.0134 22.8862 76.2044 22.8862H72.2884V28.3466ZM105.372 32.5936V44.2866H100.298V33.9909C100.298 33.3413 100.139 32.7591 99.8199 32.2443C99.5135 31.7173 99.0968 31.3005 98.5697 30.9941C98.055 30.6877 97.4789 30.5345 96.8415 30.5345C96.2042 30.5345 95.622 30.6877 95.0949 30.9941C94.5679 31.3005 94.1512 31.7173 93.8447 32.2443C93.5383 32.7591 93.3851 33.3413 93.3851 33.9909V44.2866H88.3108L88.2924 16.7088H93.3667L93.3851 27.2619C93.998 26.6736 94.715 26.2139 95.5362 25.883C96.3696 25.5521 97.246 25.3866 98.1653 25.3866C99.5013 25.3866 100.709 25.7114 101.787 26.361C102.878 27.0106 103.748 27.8809 104.398 28.9717C105.047 30.0503 105.372 31.2576 105.372 32.5936ZM122.183 25.9014H127.258V44.2866H122.165L121.926 42.3746C121.448 43.0855 120.835 43.6615 120.087 44.1028C119.34 44.544 118.463 44.7646 117.458 44.7646C116.085 44.7646 114.805 44.5072 113.616 43.9925C112.427 43.4777 111.379 42.7668 110.472 41.8598C109.565 40.9528 108.854 39.9048 108.339 38.7159C107.837 37.5147 107.585 36.2278 107.585 34.855C107.585 33.5435 107.824 32.3178 108.302 31.178C108.78 30.0381 109.455 29.033 110.325 28.1628C111.195 27.2925 112.194 26.6123 113.322 26.122C114.461 25.6317 115.687 25.3866 116.999 25.3866C118.126 25.3866 119.137 25.6256 120.032 26.1036C120.939 26.5817 121.73 27.1884 122.404 27.9238L122.183 25.9014ZM117.33 39.8926C118.163 39.8926 118.917 39.6781 119.591 39.2491C120.265 38.8201 120.798 38.244 121.19 37.5209C121.583 36.7855 121.779 35.9765 121.779 35.094C121.779 34.1993 121.583 33.3903 121.19 32.6672C120.798 31.944 120.265 31.3679 119.591 30.939C118.917 30.51 118.163 30.2955 117.33 30.2955C116.484 30.2955 115.718 30.51 115.031 30.939C114.345 31.3679 113.8 31.9501 113.395 32.6855C112.991 33.4087 112.788 34.2115 112.788 35.094C112.788 35.9765 112.991 36.7855 113.395 37.5209C113.812 38.244 114.363 38.8201 115.05 39.2491C115.736 39.6781 116.496 39.8926 117.33 39.8926ZM130.216 37.5576V25.9014H135.291V36.1604C135.291 36.81 135.444 37.3983 135.75 37.9253C136.069 38.4401 136.492 38.8507 137.019 39.1571C137.546 39.4636 138.122 39.6168 138.747 39.6168C139.385 39.6168 139.967 39.4636 140.494 39.1571C141.021 38.8507 141.438 38.4401 141.744 37.9253C142.05 37.3983 142.204 36.81 142.204 36.1604V25.9014H147.278L147.296 44.2866H142.222L142.204 42.8893C141.591 43.4777 140.868 43.9373 140.034 44.2682C139.213 44.5992 138.343 44.7646 137.423 44.7646C136.1 44.7646 134.892 44.4398 133.802 43.7902C132.711 43.1406 131.84 42.2765 131.191 41.1979C130.541 40.107 130.216 38.8936 130.216 37.5576ZM150.64 44.2866L162.553 23.6216H149.518V18.5473H168.436V23.6216L156.486 44.2866H150.64ZM171.036 44.2866L182.949 23.6216H169.914V18.5473H188.833V23.6216L176.882 44.2866H171.036ZM191.432 44.2866L203.345 23.6216H190.31V18.5473H209.229V23.6216L197.278 44.2866H191.432Z" fill="white"/>
</svg>
