<svg width="28" height="4" viewBox="0 0 28 4" fill="none" xmlns="http://www.w3.org/2000/svg">
<path d="M1 3.12968C1.4097 3.02372 1.80357 2.86695 2.21184 2.755C2.99242 2.54097 3.79512 2.39183 4.58284 2.2047C6.53 1.74211 8.42879 1.28245 10.4313 1.15677C12.359 1.03579 14.2724 1.02213 16.2036 1.02213C18.7848 1.02213 21.3933 0.904316 23.9606 1.21239C24.6693 1.29744 25.3896 1.37885 26.0945 1.49632C26.237 1.52008 26.354 1.59614 26.5014 1.6017C26.7452 1.6109 27.392 1.6017 26.6653 1.6017C22.1872 1.6017 17.6625 1.41269 13.1945 1.77148C10.6916 1.97247 8.18766 2.2972 5.70686 2.68182C5.1177 2.77317 4.53017 2.89055 3.95057 3.0243" stroke="white" stroke-width="0.5" stroke-linecap="round"/>
</svg>
