<svg width="117" height="39" viewBox="0 0 117 39" fill="none" xmlns="http://www.w3.org/2000/svg">
<path d="M4.47413 9.60267V13.9131H7.82972C9.11194 13.995 10.2305 13.122 10.3123 11.8397C10.3123 11.8397 10.3123 11.8397 10.3123 11.7579C10.3123 10.3938 9.19378 9.52083 7.50235 9.52083L4.47413 9.60267ZM4.47413 3.27342V7.12008H7.58419C8.70272 7.20192 9.73941 6.41077 9.82125 5.29224C9.82125 5.21039 9.82125 5.12855 9.82125 5.12855C9.82125 4.09186 8.78456 3.3007 7.33866 3.3007H4.47413V3.27342ZM0 0.708984H6.08372C8.81185 0.708984 9.76669 0.790828 10.5578 1.1182C12.0856 1.82752 12.9586 3.27342 12.9586 4.96486C12.9586 6.57445 12.4675 7.36561 10.8852 8.15677C12.5767 8.72967 13.6952 10.312 13.5315 12.0853C13.5315 14.7316 11.4581 16.4776 8.40263 16.4776H0V13.9131H1.20038V3.27342H0V0.708984Z" fill="#478767"/>
<path d="M23.7582 9.05717C23.7582 7.69311 22.6396 6.65642 21.3574 6.65642H21.2756C19.9115 6.65642 18.793 7.69311 18.5474 8.97533L23.7582 9.05717ZM26.8137 12.5765C26.2408 15.2227 24.0855 16.8323 21.221 16.8323C17.8654 16.8323 15.3828 14.186 15.3828 10.5031C15.3828 6.82011 17.8654 4.17383 21.221 4.17383C23.0488 4.17383 24.8221 5.04683 25.8588 6.65642C26.65 8.02049 27.141 9.54824 27.0592 11.1305H18.411C18.7384 14.2406 20.7299 14.4043 21.3028 14.4043C22.4214 14.4861 23.4581 13.695 23.7854 12.631L26.8137 12.5765Z" fill="#478767"/>
<path d="M36.8263 8.64928H42.3371V16.5063H40.5638V14.0237C40.2364 14.5966 39.8545 15.0604 39.3634 15.5514C38.3267 16.4244 37.0445 16.9155 35.7623 16.9155C32.0793 16.9155 29.1875 13.3144 29.1875 8.67656C29.1875 4.03874 32.0793 0.355773 35.6804 0.355773C37.672 0.273929 39.4453 1.39246 40.4001 3.0839V0.574023H42.0915V5.62106H40.3183C40.1546 4.91174 39.8272 4.25699 39.4453 3.71137C38.6541 2.67468 37.3719 2.01993 36.0897 1.93809C34.18 1.93809 31.2882 3.62952 31.2882 8.51287C31.2882 12.3595 33.3615 15.1695 36.0897 15.1695C38.2449 15.0877 40.0182 13.4781 40.4001 11.4047C40.4819 10.9955 40.4819 10.5317 40.4819 10.1225H36.7171L36.8263 8.64928Z" fill="#478767"/>
<path d="M52.3488 10.3124L51.2303 10.4761C47.5473 10.9672 46.3469 11.5946 46.3469 13.1224C46.4288 14.4865 47.5473 15.4413 48.8295 15.4413C50.6028 15.3595 52.1033 14.0772 52.3488 12.3312V10.3124ZM55.7863 16.5598H52.3488V14.4046C51.5577 15.9324 49.9481 16.8054 48.2566 16.8054C46.2651 16.9691 44.4918 15.3595 44.3281 13.3679C44.3281 13.2861 44.3281 13.2042 44.3281 13.1224C44.3281 10.8035 46.3197 9.68496 51.1212 9.19389L52.2397 9.11205V7.91167C52.2397 6.54761 51.203 5.67461 49.5116 5.67461C47.8201 5.67461 46.9471 6.24752 46.6197 7.82983H44.7919C44.9556 6.87499 45.4194 6.00199 46.156 5.34723C47.029 4.63792 48.2293 4.31055 49.3479 4.31055C51.8305 4.31055 53.9038 5.42908 53.9038 8.48458V15.1412H55.5953L55.7863 16.5598Z" fill="#478767"/>
<path d="M60.8356 6.71092C61.4085 5.91977 62.4452 4.22833 64.6823 4.22833C66.2919 4.22833 67.1649 5.01948 67.4923 6.71092C67.8196 6.13802 68.1197 5.67423 68.6108 5.18317C69.3201 4.5557 70.2204 4.14648 71.1752 4.14648C73.0031 4.14648 74.067 5.34686 74.067 7.42024V15.0317H75.7585V16.4776H72.4029V8.07499C72.4029 6.38355 71.83 5.59239 70.6296 5.59239C68.5562 5.59239 67.4377 8.07499 67.4377 8.94799V15.0317H69.211V16.4776H65.6917V7.85674C65.6917 6.32898 65.1188 5.70152 63.9184 5.70152C62.0906 5.70152 60.7265 8.02042 60.7265 9.13895V15.1408H62.4998V16.5867H57.2891V15.1408H59.0623V5.8652H57.2891V4.4193H60.8083L60.8356 6.71092Z" fill="#478767"/>
<path d="M80.914 11.4581C80.914 13.4497 82.4418 15.0593 84.3514 15.2229C86.4248 15.2229 87.707 13.3951 87.707 10.4214C87.707 7.44778 86.343 5.70178 84.3514 5.70178C82.5782 5.70178 80.8322 7.61147 80.8322 9.38475L80.914 11.4581ZM77.5584 0H80.914V6.95672C81.4051 6.08372 82.7418 4.31044 84.8425 4.31044C87.5706 4.31044 89.644 7.12041 89.644 10.6397C89.644 13.9134 87.4069 16.7234 84.8425 16.7234C82.6873 16.7234 81.6506 15.2775 80.914 14.3227V16.5597H77.4766V15.1138H79.168V1.44591H77.5584V0Z" fill="#478767"/>
<path d="M90.6678 0H94.1052V15.1411H95.7148V16.587H90.5859V15.1411H92.3592V1.36406H90.6678V0Z" fill="#478767"/>
<path d="M105.715 9.52127C105.715 8.40274 105.305 7.36605 104.514 6.49305C103.941 6.00198 103.232 5.70189 102.523 5.78374C100.995 5.86558 99.7128 6.90227 99.3308 8.34817C99.249 8.75739 99.0853 9.13933 99.0853 9.54855L105.715 9.52127ZM107.488 13.2042C107.324 13.9136 106.997 14.4865 106.533 15.0321C105.578 16.1506 104.214 16.8054 102.686 16.8054C99.4127 16.8054 97.0938 14.2409 97.0938 10.558C97.0938 7.03867 99.4127 4.31055 102.386 4.31055C105.36 4.31055 107.761 6.62945 107.761 10.8853H99.0307C99.1944 12.6586 99.6036 13.6953 100.395 14.4865C101.022 15.0594 101.841 15.3595 102.632 15.3595C103.996 15.3595 104.869 14.732 105.524 13.2861L107.488 13.2042Z" fill="#478767"/>
<path d="M112.859 3.98409C112.968 3.95681 113.077 3.92953 113.159 3.87497C113.241 3.82041 113.323 3.73856 113.377 3.65672C113.432 3.57488 113.459 3.43847 113.459 3.30206C113.459 3.11109 113.404 2.92013 113.295 2.811C113.186 2.67459 112.995 2.62003 112.75 2.62003H111.413V4.03866H112.531C112.613 4.01138 112.75 4.01138 112.859 3.98409ZM112.75 2.15625C113.132 2.15625 113.432 2.23809 113.65 2.42906C113.868 2.62003 113.977 2.86556 113.977 3.19294C113.977 3.43847 113.923 3.65672 113.814 3.84769C113.704 4.03866 113.513 4.14778 113.268 4.22963C113.377 4.25691 113.486 4.28419 113.568 4.33875C113.65 4.39331 113.704 4.44788 113.732 4.52972C113.786 4.61156 113.814 4.69341 113.841 4.77525C113.868 4.85709 113.868 4.96622 113.895 5.04806C113.895 5.15719 113.895 5.23903 113.923 5.34816C113.923 5.45728 113.95 5.53913 113.95 5.64825C113.977 5.75738 113.977 5.83922 114.005 5.92106C114.032 6.00291 114.086 6.08475 114.141 6.1666H113.541C113.513 6.11203 113.486 6.05747 113.459 6.00291C113.432 5.92106 113.432 5.83922 113.432 5.75738C113.432 5.67553 113.432 5.56641 113.432 5.48456C113.432 5.37544 113.404 5.2936 113.404 5.18447C113.377 5.07534 113.377 4.9935 113.35 4.91166C113.323 4.82981 113.295 4.74797 113.241 4.66613C113.186 4.61156 113.132 4.557 113.05 4.50244C112.968 4.47516 112.859 4.44788 112.722 4.44788H111.413V6.1666H110.867V2.15625H112.75Z" fill="#478767"/>
<path d="M112.343 1.03756C110.542 1.03756 109.069 2.51075 109.069 4.31131C109.069 6.11188 110.542 7.58507 112.343 7.58507C114.143 7.58507 115.616 6.11188 115.616 4.31131C115.644 2.51075 114.17 1.03756 112.343 1.03756ZM112.343 8.23982C110.187 8.23982 108.414 6.49382 108.414 4.31131C108.414 2.15609 110.16 0.382812 112.343 0.382812C114.498 0.382812 116.271 2.12881 116.271 4.31131C116.271 6.49382 114.525 8.23982 112.343 8.23982Z" fill="#478767"/>
<path d="M8.04935 22.5889L5.97597 29.6275H10.15L8.04935 22.5889ZM6.11238 19.6152H9.95903L14.3513 32.9012H15.5517V35.4656H11.9506L10.9139 32.0282H5.32122L4.28453 35.4656H0.601562V32.9012H1.80194L6.11238 19.6152Z" fill="#478767"/>
<path d="M15.3828 23.3789H20.1843V25.6978H18.9839L20.6754 32.8182L22.6669 23.3789H25.777L27.7685 32.6545L29.3781 25.6978H28.1777V23.3789H33.0065V25.6978H31.9698L29.4054 35.3827H26.2135L24.2219 27.0619L22.3123 35.3827H19.0658L16.4195 25.6978H15.3828V23.3789Z" fill="#478767"/>
<path d="M41.4861 29.7916C38.6761 30.0371 36.8483 30.2826 36.8483 31.9468C36.8483 32.9016 37.6394 33.5564 38.8398 33.5564C40.2857 33.5564 41.4861 32.4379 41.5679 30.992V29.7916H41.4861ZM44.3779 33.1472H45.4146V35.4661H41.6498V34.0202C40.7768 35.1387 39.4127 35.7116 37.9668 35.7116C35.5661 35.7116 33.7109 34.102 33.7109 31.9468C33.7109 28.4275 37.7213 28.0183 41.5679 27.6909C41.5679 25.8631 40.9405 25.2902 39.4127 25.2902C37.885 25.2902 37.3393 25.9995 37.2575 27.118V27.1999L34.3657 27.1453C34.5294 24.7445 36.4391 23.2168 39.3309 23.2168C42.6865 23.2168 44.4598 24.7445 44.4598 27.4727L44.3779 33.1472Z" fill="#478767"/>
<path d="M51.1 25.3173C51.8912 23.7896 52.7914 23.1621 54.1282 23.1621C54.6193 23.1621 55.0012 23.244 55.4923 23.3258V26.1358C55.0012 26.0539 54.5374 25.9721 54.0464 25.9721C52.5186 25.8902 51.2364 27.0088 51.1546 28.4547V33.0925H52.6005V35.4114H47.0078V33.0925H48.2082V25.7265H47.0078V23.4076H51.1V25.3173Z" fill="#478767"/>
<path d="M64.4614 27.9361C64.4614 26.5721 63.3429 25.5354 62.0607 25.5354H61.9788C60.6147 25.5354 59.4962 26.5721 59.2507 27.8543L64.4614 27.9361ZM67.5715 31.4827C66.9986 34.129 64.8433 35.7386 61.9788 35.7386C58.6232 35.7386 56.1406 33.0923 56.1406 29.4093C56.1406 25.7264 58.6232 23.0801 61.9788 23.0801C63.8067 23.0801 65.5799 23.9531 66.6166 25.5627C67.4078 26.9267 67.8988 28.4545 67.817 30.0368H59.1688C59.4962 33.1469 61.4878 33.3105 62.0607 33.3105C63.1792 33.3924 64.2159 32.6012 64.5433 31.5373L67.5715 31.4827Z" fill="#478767"/>
<path d="M69.2578 33.8828H70.7583V35.356H69.2578V33.8828Z" fill="#478767"/>
<path d="M76.0066 34.4565C77.6435 34.4565 78.6256 33.147 78.6256 30.9645C78.6256 28.9185 77.5889 27.609 76.0066 27.609C74.4516 27.609 73.4695 28.9185 73.4695 31.0191C73.4967 33.2016 74.4243 34.4565 76.0066 34.4565ZM72.0781 31.0191C72.0781 28.3728 73.715 26.5723 76.0612 26.5723C78.3528 26.5723 80.0442 28.4547 80.0442 31.0191C80.0442 33.6927 78.4074 35.5478 76.0339 35.5478C73.6877 35.5478 72.0781 33.72 72.0781 31.0191Z" fill="#478767"/>
<path d="M83.3965 28.6728C83.8058 27.7725 84.0513 27.4997 84.4332 27.1178C84.897 26.7358 85.4426 26.5176 86.0155 26.5176C86.2338 26.5176 86.5066 26.5449 86.9431 26.6267V27.9089C86.5066 27.8271 86.2611 27.7998 86.0155 27.7998C83.6693 27.7998 83.3965 30.2278 83.3965 30.3642V34.3473H84.8697V35.3567H80.9139V34.3473H82.1416V27.718H80.8594V26.6813H83.3965V28.6728Z" fill="#478767"/>
<path d="M93.7438 29.8732C93.7438 28.9184 92.598 27.5816 91.2612 27.5816C89.8426 27.5816 88.9696 28.7274 88.9696 30.6098C88.9696 32.5195 89.8426 33.6926 91.3431 33.6926C92.6253 33.6926 93.7438 32.465 93.7438 31.4283V29.8732ZM93.7438 33.2288C92.9527 34.3474 92.0797 34.702 91.1521 34.702C89.0787 34.702 87.6328 33.0106 87.6328 30.528C87.6328 28.2091 89.0242 26.5449 90.9884 26.5449C92.5707 26.5449 93.28 27.5543 93.7438 28.2091V26.654H96.1991V27.6907H94.9988V34.8111C94.9988 36.9118 93.662 38.0849 91.3158 38.0849C89.8972 38.0849 88.6695 37.4574 88.0966 36.448C87.9875 36.2298 87.8783 36.0388 87.7419 35.6023H89.1333C89.6516 36.639 90.2518 37.0209 91.4249 37.0209C92.8981 37.0209 93.7711 36.257 93.7711 35.0021L93.7438 33.2288Z" fill="#478767"/>
</svg>
