<svg width="200" height="111" viewBox="0 0 200 111" fill="none" xmlns="http://www.w3.org/2000/svg">
<path d="M0 20.0005C0 8.95476 8.95419 0 19.9999 0C74.7942 0 129.729 0 185.957 0C193.232 0 199.13 5.89754 199.13 13.1726C199.13 21.2758 199.13 29.433 199.13 37.7008C199.13 39.2974 197.348 40.0607 196.303 38.8535V38.8535C184.162 24.9446 169.493 22.8591 155.362 26.8426C155.02 26.9376 154.679 27.0325 154.327 27.1304C136.21 32.3051 118.915 44.6451 101.937 56.1889C88.6956 65.19 75.4291 73.8931 61.8106 81.0989C61.4439 81.2945 61.0772 81.4902 60.6994 81.6917C54.3849 85.0221 47.9355 87.1883 41.4298 89.0945C41.0507 89.2067 40.6717 89.3189 40.2811 89.4345C35.2899 90.8401 30.2927 90.9775 25.2463 91.0221C24.9361 91.0267 24.6259 91.0313 24.3063 91.0361C18.7437 91.0985 13.4408 89.9977 8.03955 87.7024C7.60368 87.5217 7.60368 87.5217 7.159 87.3372C5.66038 86.7026 4.18616 85.9923 2.72627 85.1785C1.7672 84.6439 0.542381 85.2451 0.435828 86.3379C0.424722 86.4519 0.413592 86.566 0.402435 86.6804C0.361532 87.0999 0.590763 87.4994 0.973621 87.6757V87.6757C1.42197 87.8833 1.42197 87.8833 1.87938 88.0951C2.3891 88.3303 2.3891 88.3303 2.90912 88.5703C3.62095 88.9095 4.33038 89.264 5.03646 89.6367C7.46412 90.9031 9.88838 91.8389 12.383 92.6283C12.6788 92.7236 12.9746 92.8189 13.2794 92.9171C29.846 97.9633 47.8984 92.0768 63.6573 83.2641C64.6112 82.7423 65.5698 82.2495 66.5286 81.7548C68.1441 80.9092 69.7429 79.9993 71.3354 79.0353C71.5445 78.909 71.7537 78.7828 71.9692 78.6527C72.8266 78.1343 73.6837 77.6147 74.5394 77.0881C75.1758 76.6973 75.8136 76.3134 76.4514 75.9298C76.8245 75.7021 77.1975 75.4744 77.5818 75.2397V75.2397C78.5102 74.8192 78.6985 76.085 77.9207 76.7435C57.7547 93.8158 35.7214 110.822 12.8957 110.934C12.2273 110.94 11.5589 110.958 10.8906 110.976V110.976C4.365 111.019 0 104.52 0 97.9946C0 72.1879 0 46.3237 0 20.0005Z" fill="#478767"/>
<circle cx="35.6614" cy="68.5418" r="14.346" fill="white"/>
<path d="M50.0073 68.5418C50.0073 72.1398 48.6553 75.6064 46.2194 78.2544C43.7835 80.9023 40.4414 82.5383 36.8559 82.8379C33.2704 83.1375 29.7032 82.0788 26.8616 79.8718C24.02 77.6648 22.1115 74.4706 21.5144 70.9225C20.9173 67.3744 21.6752 63.7315 23.6379 60.716C25.6007 57.7005 28.6248 55.5326 32.1109 54.6421C35.597 53.7516 39.2904 54.2036 42.4589 55.9084C45.6273 57.6133 48.0395 60.4464 49.2171 63.8462L47.8664 64.3141C46.8061 61.2531 44.6342 58.7022 41.7815 57.1673C38.9288 55.6324 35.6034 55.2254 32.4647 56.0272C29.326 56.8289 26.6032 58.7808 24.836 61.4958C23.0689 64.2108 22.3865 67.4907 22.9241 70.6853C23.4617 73.8798 25.18 76.7557 27.7385 78.7428C30.2969 80.7299 33.5087 81.6831 36.7369 81.4133C39.9651 81.1436 42.9741 79.6707 45.1673 77.2865C47.3605 74.9024 48.5778 71.7812 48.5778 68.5418H50.0073Z" fill="white"/>
<path d="M35.3705 63.4782C34.7516 63.4782 34.222 63.2718 33.7817 62.859C33.3414 62.4462 33.1209 61.9494 33.1201 61.3685C33.1194 60.7876 33.3399 60.2911 33.7817 59.879C34.2235 59.467 34.7531 59.2602 35.3705 59.2588C35.9878 59.2574 36.5178 59.4641 36.9603 59.879C37.4029 60.294 37.6231 60.7904 37.6208 61.3685C37.6186 61.9466 37.3984 62.4434 36.9603 62.859C36.5223 63.2746 35.9923 63.481 35.3705 63.4782ZM35.3705 78.2461C34.9016 78.2461 34.5033 78.0924 34.1755 77.7851C33.8477 77.4778 33.6835 77.104 33.6827 76.6638V67.1702C33.6827 66.7306 33.847 66.3572 34.1755 66.0499C34.5041 65.7426 34.9024 65.5886 35.3705 65.5879C35.8385 65.5872 36.2372 65.7412 36.5665 66.0499C36.8958 66.3586 37.0597 66.7321 37.0582 67.1702V76.6638C37.0582 77.1033 36.8943 77.4771 36.5665 77.7851C36.2387 78.0931 35.84 78.2468 35.3705 78.2461Z" fill="#478767"/>
</svg>
