<svg width="117" height="44" viewBox="0 0 117 44" fill="none" xmlns="http://www.w3.org/2000/svg">
<path fill-rule="evenodd" clip-rule="evenodd" d="M0.0122521 10.1693C0.110269 9.7527 0.196034 9.33612 0.294051 8.9318C1.24972 5.31743 4.15347 4.33725 7.06948 4.59455C8.14767 4.69257 9.11559 5.10914 9.91197 6.0648C9.93648 5.62373 9.94873 5.29292 9.96098 4.94986C10.0467 4.92536 10.1325 4.9131 10.2183 4.9131C11.6273 4.9131 13.0363 4.9131 14.5065 4.9131C14.5188 5.15815 14.531 5.36643 14.531 5.58697C14.531 9.50765 14.531 13.4283 14.531 17.349C14.531 17.9616 14.4943 18.5742 14.4085 19.1746C14.09 21.2207 12.8157 22.4337 10.8921 22.985C8.36821 23.7079 5.69724 23.7446 3.1488 23.0953C1.16395 22.5929 0.330808 21.5392 0.0980171 19.4686C0.0857649 19.3094 0.0367564 19.1501 0 19.0031V18.6355H4.85184C4.97437 19.7749 5.24391 20.1303 6.30985 20.2773C6.89795 20.3508 7.52281 20.265 8.11091 20.1548C8.78478 20.0567 9.29937 19.4931 9.34838 18.807C9.42189 18.0964 9.42189 17.3735 9.45864 16.4914C8.71126 17.3613 7.85362 17.6186 6.95921 17.7288C3.68789 18.1086 1.22521 16.7609 0.294051 13.6366C0.17153 13.2323 0.0980171 12.8157 0 12.3992V10.1693H0.0122521ZM9.37288 11.3332C9.31162 10.8064 9.28712 10.3898 9.2136 9.99774C9.01757 8.94406 8.41721 8.36821 7.4983 8.30695C6.40786 8.23343 5.62373 8.72352 5.29292 9.76495C4.96211 10.7574 4.94986 11.8356 5.25616 12.8402C5.52571 13.7469 6.15057 14.2002 7.10624 14.2247C8.07415 14.2492 8.79703 13.7959 9.07883 12.9015C9.25036 12.3501 9.29937 11.7743 9.37288 11.3332ZM87.0024 43.6176C86.9656 43.4338 86.9534 43.2623 86.9411 43.0785C86.9411 37.2832 86.9411 31.488 86.9411 25.6927C86.9411 25.5579 86.9656 25.4109 86.9779 25.2271H92.1115C92.136 25.5089 92.1483 25.7662 92.1728 26.097C93.3367 25.0066 94.6967 24.7616 96.167 24.8596C98.3356 24.9943 99.8671 26.0848 100.7 28.0574C101.742 30.4956 101.803 33.0317 100.86 35.5067C99.5363 39.023 95.2603 40.2115 92.1483 37.8591V43.6176H87.0024ZM92.0748 31.9658C92.136 32.5294 92.1605 33.0685 92.2708 33.5831C92.4913 34.6245 93.1897 35.2371 94.0964 35.2494C95.0275 35.2739 95.9097 34.6613 96.0322 33.6444C96.167 32.5172 96.167 31.39 96.0199 30.2628C95.8974 29.3071 95.1378 28.7803 94.2801 28.7558C93.3245 28.7312 92.5526 29.2826 92.3076 30.2505C92.1605 30.8141 92.136 31.4145 92.0748 31.9658ZM61.3954 0V5.64823C61.4567 5.66048 61.5302 5.66048 61.6037 5.64823C64.9976 3.30808 69.2245 4.81509 70.3027 8.82153C70.9031 10.9657 70.7438 13.2568 69.8494 15.2907C68.6609 18.0719 65.7327 19.4196 62.8779 18.4885C62.3266 18.3169 61.8365 17.9739 61.2974 17.6921C61.2852 17.8391 61.2607 18.0719 61.2362 18.3537H56.127V0H61.3954ZM65.4509 11.713L65.3896 11.7008C65.3651 11.272 65.3406 10.8431 65.2916 10.4266C65.2671 10.2305 65.2181 10.0222 65.1446 9.83846C64.8505 8.95631 64.1767 8.39271 63.3925 8.36821C62.5839 8.3437 61.8243 8.89505 61.5302 9.78945C61.1381 11.0147 61.1381 12.3501 61.5425 13.5754C61.763 14.3472 62.4859 14.8741 63.2823 14.8618C64.1277 14.8741 64.7893 14.433 65.0711 13.5631C65.2671 12.9505 65.3284 12.3256 65.4509 11.713ZM105.013 43.6176L103.347 43.348V39.5989C103.861 39.5989 104.376 39.5989 104.903 39.5989C105.895 39.5866 106.103 39.3048 105.785 38.3614C104.376 34.1834 102.955 30.0055 101.533 25.8275C101.472 25.6437 101.411 25.4599 101.325 25.1781H104.376C105.013 25.1781 105.638 25.2026 106.275 25.1659C106.716 25.1414 106.9 25.2639 106.998 25.7417C107.5 28.2289 108.052 30.7161 108.591 33.2033C108.627 33.3748 108.689 33.5463 108.774 33.8649C109.093 32.5049 109.375 31.2797 109.657 30.0545C109.987 28.5842 110.33 27.114 110.649 25.6437C110.735 25.2639 110.906 25.1659 111.274 25.1659C112.72 25.1904 114.178 25.1781 115.623 25.1659C115.844 25.1659 116.064 25.1291 116.285 25.1169V25.3619C116.224 25.4599 116.175 25.5702 116.138 25.6805C114.594 30.2015 113.063 34.7225 111.494 39.2313C111.2 40.089 110.833 40.9344 110.392 41.7308C109.902 42.6252 109.044 43.25 108.052 43.4461C107.733 43.5196 107.414 43.5563 107.096 43.6176H105.013ZM76.8331 0C76.8454 0.159278 76.8699 0.318555 76.8699 0.490085C76.8699 6.28534 76.8699 12.0806 76.8699 17.8759C76.8699 18.0229 76.8576 18.1577 76.8454 18.3537H71.5647V0H76.8331ZM83.8168 0V3.55312H78.4259V0H83.8168ZM54.5097 18.3782H49.1923V17.6921C49.1923 15.6092 49.1923 13.5264 49.1923 11.4435C49.1923 11.1984 49.1923 10.9534 49.1678 10.7084C49.0698 9.54441 48.4572 8.99306 47.281 9.02982C46.1538 9.05432 45.4677 9.70369 45.4554 10.8186C45.4309 13.1098 45.4432 15.3887 45.4432 17.6798C45.4432 17.9004 45.4432 18.1209 45.4432 18.3782H40.089C40.089 18.1577 40.089 17.9371 40.089 17.7288C40.089 15.4622 40.089 13.1955 40.0767 10.9289C40.0645 9.78945 39.5009 9.14009 38.4962 9.05433C37.3322 8.95631 36.5604 9.51991 36.3521 10.6594C36.3031 10.9412 36.2908 11.223 36.2908 11.517C36.2908 13.7836 36.2908 16.0503 36.2908 18.3659H31.0101V4.93761H36.0948V6.72642C37.271 4.97437 38.8638 4.54554 40.6526 4.61905C42.4414 4.69257 43.9729 5.24391 44.8796 7.00822C45.1123 6.70192 45.3206 6.40786 45.5534 6.15057C46.9379 4.64356 48.7145 4.45978 50.5768 4.65581C52.4636 4.85184 53.8849 6.0648 54.3382 7.84136C54.4362 8.17217 54.4852 8.51523 54.4975 8.87054C54.522 12.0071 54.5097 15.1559 54.5097 18.3782ZM100.798 18.6232H105.515C105.552 18.758 105.589 18.8928 105.613 19.0276C105.662 19.6647 106.042 20.0935 106.618 20.167C107.341 20.265 108.064 20.2528 108.787 20.1425C109.534 20.02 110 19.4931 110.073 18.709C110.134 18.0229 110.147 17.3368 110.183 16.5404C108.627 17.9616 106.875 17.9126 105.099 17.6063C103.665 17.3613 102.55 16.5404 101.766 15.3274C100.259 13.0118 100.345 9.01757 101.987 6.78768C103.432 4.82734 105.503 4.41077 107.757 4.5823C108.885 4.64356 109.938 5.18265 110.637 6.07706V4.93761H115.17C115.195 5.04788 115.219 5.15815 115.231 5.26842C115.219 9.59342 115.244 13.9184 115.195 18.2434C115.17 20.7429 114.006 22.2621 111.617 22.9605C109.056 23.7079 106.336 23.7324 103.763 23.034C101.607 22.4704 100.59 20.9021 100.798 18.6232ZM110.061 11.2107C110.024 10.8431 109.987 10.4633 109.926 10.0835C109.755 9.00532 109.154 8.38046 108.223 8.30695C107.096 8.22118 106.25 8.69901 106.018 9.78945C105.834 10.6839 105.797 11.5905 105.895 12.4972C106.005 13.6366 106.741 14.2002 107.831 14.2125C108.921 14.2247 109.693 13.5999 109.902 12.5094C109.975 12.0929 110 11.664 110.061 11.2107ZM45.4677 38.8147H40.9956V29.0253H36.1805V38.778H30.9611V20.3385H36.2541V26.3421C36.3276 26.3421 36.4011 26.3298 36.4623 26.2931C37.8591 24.4308 41.2529 24.1857 43.2133 25.2149C44.8673 26.0848 45.4309 27.555 45.4554 29.2703C45.5044 32.1863 45.4677 35.1024 45.4677 38.0306C45.4677 38.2757 45.4677 38.5207 45.4677 38.8147ZM29.7237 18.3782H24.7616C24.7248 18.0841 24.7003 17.8146 24.6635 17.4593C23.1933 18.464 21.6005 18.7825 19.922 18.7335C17.8146 18.66 16.2463 17.5696 15.7072 15.8052C14.8741 13.0853 16.3811 10.6839 19.3584 10.0713C20.8164 9.76495 22.2866 9.56891 23.7569 9.32387C23.9652 9.27486 24.1735 9.22585 24.3817 9.15234C24.4675 8.28244 24.198 7.81686 23.4261 7.69434C22.9115 7.60857 22.3724 7.62083 21.8578 7.71884C21.5883 7.76785 21.2084 8.04965 21.1349 8.28244C20.9756 8.88279 20.5836 8.8828 20.1303 8.8828C18.7458 8.8828 17.3613 8.8828 15.9768 8.8828C16.2218 6.76318 17.5083 5.50121 19.4931 4.93761C21.6618 4.325 23.9529 4.28825 26.146 4.82734C28.3759 5.35418 29.4174 6.67741 29.4664 9.02982C29.5276 11.5538 29.4786 14.09 29.5031 16.6261C29.5154 17.1775 29.6379 17.7533 29.7237 18.3782ZM24.3572 12.2031C23.4996 12.4482 22.6419 12.6932 21.7843 12.9383C21.5883 12.9995 21.4045 13.073 21.2207 13.1588C20.6081 13.4651 20.3263 13.9797 20.4856 14.482C20.6816 15.0824 21.1839 15.2417 21.7475 15.2417C23.3403 15.2417 24.5533 13.8572 24.3572 12.2031ZM85.6301 38.6677H80.6803C80.6558 38.3614 80.6435 38.0796 80.6313 37.9203C79.6143 38.2389 78.6097 38.7167 77.556 38.8638C76.5268 39.0108 75.4854 38.974 74.4685 38.7535C72.7286 38.3737 71.5647 36.8422 71.4544 35.1024C71.3196 33.1175 72.2018 31.439 73.9906 30.7896C75.2526 30.3363 76.6371 30.177 77.9726 29.9075C78.6342 29.7727 79.2958 29.6502 79.9574 29.5399C80.3985 29.4664 80.521 29.1968 80.325 28.8538C80.1412 28.5352 79.8839 28.1064 79.6021 28.0451C78.965 27.9349 78.3279 27.9226 77.6908 28.0206C77.458 28.0451 77.1394 28.3637 77.0659 28.6087C76.9189 29.1233 76.6003 29.1723 76.1592 29.1723C74.7748 29.1601 73.3903 29.1601 71.9568 29.1601C72.0303 27.8368 72.7409 26.6361 73.8558 25.9255C74.9218 25.2149 76.1225 24.9453 77.3722 24.8228C79.0017 24.6758 80.6313 24.6635 82.224 25.1046C84.4049 25.7172 85.4096 27.0159 85.4219 29.2826C85.4341 31.6105 85.4096 33.9384 85.4341 36.2663C85.4464 37.0627 85.5566 37.8591 85.6301 38.6677ZM80.325 32.4436C79.2713 32.7622 78.2421 33.0317 77.2619 33.3993C76.5758 33.6444 76.2695 34.208 76.4043 34.698C76.5636 35.2616 77.1394 35.5924 77.8745 35.5189C79.4061 35.3719 80.472 34.0732 80.325 32.4436ZM85.3238 4.9131H90.2737V6.64066C91.7195 4.77833 93.5573 4.325 95.6034 4.61905C98.1028 4.98662 99.5118 6.50588 99.5853 9.04207C99.6711 12.1051 99.6098 15.1681 99.6098 18.2312C99.5976 18.2802 99.5731 18.3292 99.5486 18.3782H94.3414C94.3292 18.1332 94.3169 17.9249 94.3169 17.7043C94.3169 15.4989 94.3414 13.2936 94.3046 11.0882C94.2924 10.5981 94.2066 10.0467 93.9616 9.64243C93.5083 8.91955 92.6996 8.98081 91.9645 9.09108C91.3029 9.1891 90.8618 9.61792 90.7025 10.2673C90.6168 10.6226 90.58 10.9902 90.5923 11.3577C90.58 13.4651 90.5923 15.5602 90.5923 17.6676C90.5923 17.8881 90.5923 18.1086 90.5923 18.3782H85.3483L85.3238 4.9131ZM61.0279 32.9215H51.9C51.753 33.9752 52.2431 34.9063 53.1007 35.2616C54.3505 35.7762 55.3429 35.3229 56.4946 33.6934L60.7951 35.5189C60.3295 36.3888 59.6556 37.1362 58.8225 37.6876C56.1515 39.5009 53.26 39.8072 50.3318 38.5207C47.526 37.2832 46.4356 34.8206 46.3743 31.88C46.3131 28.7803 47.9303 26.2808 50.5645 25.2394C53.6521 24.0142 57.2052 24.6513 59.2391 26.8322C60.3417 28.0084 60.8808 29.4419 61.0156 31.0346C61.0646 31.6105 61.0279 32.2231 61.0279 32.9215ZM51.9 30.0055H55.6002C55.6737 28.9763 55.0366 28.1554 54.0809 28.0574C52.917 27.9226 52.0593 28.6822 51.9 30.0055ZM28.1677 21.2697V25.4844H30.373V28.4127H28.0574C28.0574 29.4786 28.0574 30.471 28.0574 31.4635C28.0574 32.1618 28.0329 32.848 28.0329 33.5463C28.0329 34.5878 28.4372 34.9921 29.4786 35.0043C29.7604 35.0043 30.0422 34.9553 30.373 34.9308V38.5697C28.67 38.827 26.9547 39.0475 25.2394 38.6555C23.5854 38.2757 22.6909 37.0995 22.6787 35.3719C22.6664 33.3135 22.7155 31.2429 22.7277 29.1846C22.7277 28.964 22.7277 28.7435 22.7277 28.4372H20.9634V25.4967H22.8012V21.2574H28.1677V21.2697ZM67.1784 38.68H61.9468V25.2271H67.0069C67.0192 25.5457 67.0437 25.852 67.0559 26.3053C68.3179 25.1414 69.7759 24.8228 71.3932 24.8963V29.3929C70.9153 29.3929 70.4375 29.3806 69.9474 29.3929C68.1831 29.4541 67.1907 30.4465 67.1784 32.2109C67.1662 34.1344 67.1784 36.0458 67.1784 37.9694V38.68ZM78.4626 4.92536H83.7066V18.3782H78.4626V4.92536Z" fill="#478767"/>
</svg>
